<?xml version="1.0" encoding="UTF-8" standalone="no"?>
<svg xmlns="http://www.w3.org/2000/svg" xmlns:xlink="http://www.w3.org/1999/xlink" xmlns:scade="http://www.scade.io/v0.1" eObject-URI="login.page#/0" widget-name="login" width="414" height="736">
  <rect template-id="background" width="100%" height="100%" fill="#21222c" />
  <svg template-id="content-box">
    <g template-id="content">
      <g template-id="children-content">
        <svg widget-name="navigationBar" eObject-URI="login.page#/0/@children.0" width="414" height="46">
          <svg template-id="content-box">
            <g template-id="content">
              <g template-id="children-content">
                <svg widget-name="backButton" eObject-URI="login.page#/0/@children.0/@children.0" y="7" width="72" height="32">
                  <svg template-id="content-box" x="20" width="32" height="32">
                    <g template-id="content">
                      <svg viewBox="0 0 32 32" xmlns="http://www.w3.org/2000/svg" template-id="content-background" width="32" height="32" fill="none">
                        <path stroke-width="2" stroke-linejoin="round" stroke-linecap="round" d="M 25 16 H 7 M 7 16 L 13 10 M 7 16 L 13 22" stroke="#ffffff" />
                      </svg>
                      <text text-anchor="middle" alignment-baseline="central" font-size="17" font-family="ArialMT" font-style="normal" text-decoration="none" template-id="node-text" x="16" y="16" fill="#446ab3" />
                    </g>
                  </svg>
                </svg>
                <svg widget-name="signInLabel" eObject-URI="login.page#/0/@children.0/@children.1" x="183" y="14" width="48" height="19">
                  <svg template-id="content-box" width="48" height="19">
                    <g template-id="content">
                      <text alignment-baseline="central" font-size="16" font-family="SFProRounded-Semibold" font-style="normal" text-decoration="none" template-id="node-text" x="0" y="9.5" fill="#ffffff">Sign In</text>
                    </g>
                  </svg>
                </svg>
              </g>
            </g>
          </svg>
        </svg>
        <svg widget-name="UserCredentialInputSection" eObject-URI="login.page#/0/@children.1" y="46" width="414" height="345">
          <svg template-id="content-box">
            <g template-id="content">
              <g template-id="children-content">
                <svg widget-name="userEmailGridView" eObject-URI="login.page#/0/@children.1/@children.0" x="20" y="10" width="374" height="48">
                  <svg template-id="content-box">
                    <g template-id="content">
                      <g template-id="children-content">
                        <svg widget-name="emailLabel" eObject-URI="login.page#/0/@children.1/@children.0/@children.0" x="5" y="5" width="76" height="14">
                          <svg template-id="content-box" width="76" height="14">
                            <g template-id="content">
                              <text alignment-baseline="central" font-size="12" font-family="SFProRounded-Semibold" font-style="normal" text-decoration="none" template-id="node-text" x="0" y="7" fill="#5d6071">Email Address</text>
                            </g>
                          </svg>
                        </svg>
                        <svg widget-name="emailTextbox" eObject-URI="login.page#/0/@children.1/@children.0/@children.1" x="5" y="19" width="364" height="24">
                          <svg template-id="content-box" x="2" width="362" height="24">
                            <g template-id="content">
                              <text alignment-baseline="central" font-size="20" font-family="SFProRounded-Semibold" font-style="normal" text-decoration="none" inputTextWidth="364" editable="true" template-id="node-text" x="0" y="12" fill="#ffffff" />
                            </g>
                          </svg>
                        </svg>
                      </g>
                    </g>
                  </svg>
                </svg>
                <svg widget-name="userPasswordGridView" eObject-URI="login.page#/0/@children.1/@children.1" x="20" y="73" width="374" height="48">
                  <svg template-id="content-box">
                    <g template-id="content">
                      <g template-id="children-content">
                        <svg widget-name="passwordLabel" eObject-URI="login.page#/0/@children.1/@children.1/@children.0" x="5" y="5" width="52" height="14">
                          <svg template-id="content-box" width="52" height="14">
                            <g template-id="content">
                              <text alignment-baseline="central" font-size="12" font-family="SFProRounded-Semibold" font-style="normal" text-decoration="none" template-id="node-text" x="0" y="7" fill="#5d6071">Password</text>
                            </g>
                          </svg>
                        </svg>
                        <svg widget-name="passwordTextbox" eObject-URI="login.page#/0/@children.1/@children.1/@children.1" x="5" y="19" width="364" height="24">
                          <svg template-id="content-box" x="2" width="362" height="24">
                            <g template-id="content">
                              <text alignment-baseline="central" font-size="20" font-family="SFProRounded-Semibold" font-style="normal" text-decoration="none" inputTextWidth="364" hidden="true" editable="true" template-id="node-text" x="0" y="12" fill="#ffffff" />
                            </g>
                          </svg>
                        </svg>
                      </g>
                    </g>
                  </svg>
                </svg>
                <svg widget-name="alertUserLoginErrorLabel" eObject-URI="login.page#/0/@children.1/@children.2" x="20" y="136" width="0" height="0">
                  <svg template-id="content-box" width="0" height="0">
                    <g template-id="content">
                      <text alignment-baseline="central" font-size="14" font-family="SFProRounded-Regular" font-style="normal" text-decoration="none" template-id="node-text" x="0" y="0" fill="#ffffff" />
                    </g>
                  </svg>
                </svg>
                <svg widget-name="forgotPasswordButton" eObject-URI="login.page#/0/@children.1/@children.3" x="20" y="151" width="374" height="32">
                  <svg template-id="content-box" x="20" y="5" width="334" height="22">
                    <g template-id="content">
                      <text text-anchor="middle" alignment-baseline="central" font-size="18" font-family="SFProRounded-Bold" font-style="normal" text-decoration="none" template-id="node-text" x="167" y="11" fill="#ffffff">Forgot Password?</text>
                    </g>
                  </svg>
                </svg>
              </g>
            </g>
          </svg>
        </svg>
        <svg widget-name="LoginActionsView" eObject-URI="login.page#/0/@children.2" y="391" width="414" height="345">
          <svg template-id="content-box">
            <g template-id="content">
              <g template-id="children-content">
                <svg widget-name="signInButton" eObject-URI="login.page#/0/@children.2/@children.0" x="5" y="5" width="404" height="86">
                  <svg template-id="content-box" x="20" width="364" height="86">
                    <g template-id="content">
                      <svg viewBox="0 0 311 58" template-id="content-background" xmlns="http://www.w3.org/2000/svg" x="26.5" y="14" width="311" height="58" fill="none">
                        <rect width="311" height="58" rx="12" fill="#ff3399" />
                        <path d="M 133.466 35.2109 C 136.63 35.2109 138.572 33.6465 138.572 31.168 C 138.572 29.2432 137.412 28.1621 134.723 27.626 L 133.387 27.3535 C 131.884 27.0547 131.277 26.5713 131.277 25.7891 C 131.277 24.8574 132.147 24.2422 133.457 24.2422 C 134.547 24.2422 135.364 24.6377 135.786 25.5957 C 136.085 26.1406 136.454 26.3779 137.052 26.3779 C 137.729 26.3779 138.186 25.9473 138.186 25.3145 C 138.186 25.0859 138.15 24.9014 138.089 24.7256 C 137.526 23.0732 135.777 22.0977 133.457 22.0977 C 130.636 22.0977 128.614 23.6357 128.614 25.9561 C 128.614 27.8457 129.854 29.0586 132.385 29.5596 L 133.729 29.8232 C 135.32 30.1484 135.918 30.623 135.918 31.458 C 135.918 32.3896 134.951 33.0752 133.527 33.0752 C 132.314 33.0752 131.321 32.6357 130.908 31.6689 C 130.592 31.1064 130.231 30.8955 129.687 30.8955 C 129.001 30.8955 128.518 31.3613 128.518 32.0645 C 128.518 32.3018 128.57 32.5479 128.658 32.7764 C 129.168 34.165 130.847 35.2109 133.466 35.2109 z M 141.306 24.4092 C 142.079 24.4092 142.677 23.8203 142.677 23.082 C 142.677 22.335 142.079 21.7549 141.306 21.7549 C 140.532 21.7549 139.935 22.335 139.935 23.082 C 139.935 23.8203 140.532 24.4092 141.306 24.4092 z M 141.306 35.1846 C 142.097 35.1846 142.589 34.6836 142.589 33.8486 V 26.7295 C 142.589 25.8945 142.097 25.3848 141.306 25.3848 C 140.506 25.3848 140.022 25.8945 140.022 26.7295 V 33.8486 C 140.022 34.6836 140.506 35.1846 141.306 35.1846 z M 148.513 38.542 C 151.545 38.5596 153.32 37.083 153.32 34.6309 V 26.6855 C 153.32 25.8154 152.784 25.3848 152.046 25.3848 C 151.308 25.3848 150.754 25.8154 150.754 26.6855 V 27.2041 H 150.701 C 150.209 26.1406 149.181 25.4287 147.827 25.4287 C 145.401 25.4287 143.96 27.1777 143.96 30.1309 C 143.96 33.0049 145.437 34.7979 147.783 34.7979 C 149.146 34.7979 150.244 34.1211 150.684 33.1104 H 150.736 V 34.6133 C 150.736 35.791 149.91 36.5645 148.504 36.5557 C 147.651 36.5469 146.983 36.1865 146.289 35.5273 C 145.999 35.2637 145.735 35.1582 145.401 35.1582 C 144.76 35.1582 144.355 35.5625 144.355 36.0986 C 144.355 36.3359 144.408 36.5732 144.549 36.8105 C 145.155 37.8037 146.588 38.5332 148.513 38.542 z M 148.653 32.8906 C 147.379 32.8906 146.588 31.8799 146.588 30.1572 C 146.588 28.4521 147.388 27.3799 148.653 27.3799 C 149.937 27.3799 150.763 28.4697 150.763 30.166 C 150.763 31.8711 149.937 32.8906 148.653 32.8906 z M 156.273 35.1846 C 157.029 35.1846 157.557 34.7275 157.557 33.8486 V 29.5947 C 157.557 28.373 158.286 27.5293 159.438 27.5293 C 160.589 27.5293 161.169 28.2324 161.169 29.4629 V 33.8486 C 161.169 34.7275 161.696 35.1846 162.452 35.1846 C 163.199 35.1846 163.735 34.7275 163.735 33.8486 V 28.9268 C 163.735 26.7207 162.558 25.4023 160.466 25.4023 C 159.016 25.4023 158.066 26.0439 157.565 27.2129 H 157.513 V 26.6855 C 157.513 25.877 157.003 25.3848 156.229 25.3848 C 155.456 25.3848 154.99 25.877 154.99 26.6768 V 33.8486 C 154.99 34.7275 155.526 35.1846 156.273 35.1846 z M 170.477 35.167 C 171.312 35.167 171.804 34.6572 171.804 33.7871 V 23.5303 C 171.804 22.6514 171.312 22.1416 170.477 22.1416 C 169.642 22.1416 169.149 22.6514 169.149 23.5303 V 33.7871 C 169.149 34.6572 169.642 35.167 170.477 35.167 z M 174.977 35.1846 C 175.732 35.1846 176.26 34.7275 176.26 33.8486 V 29.5947 C 176.26 28.373 176.989 27.5293 178.141 27.5293 C 179.292 27.5293 179.872 28.2324 179.872 29.4629 V 33.8486 C 179.872 34.7275 180.399 35.1846 181.155 35.1846 C 181.902 35.1846 182.438 34.7275 182.438 33.8486 V 28.9268 C 182.438 26.7207 181.261 25.4023 179.169 25.4023 C 177.719 25.4023 176.77 26.0439 176.269 27.2129 H 176.216 V 26.6855 C 176.216 25.877 175.706 25.3848 174.933 25.3848 C 174.159 25.3848 173.693 25.877 173.693 26.6768 V 33.8486 C 173.693 34.7275 174.229 35.1846 174.977 35.1846 z" fill="#ffffff" />
                      </svg>
                      <text text-anchor="middle" alignment-baseline="central" font-size="17" font-family="ArialMT" font-style="normal" text-decoration="none" template-id="node-text" x="182" y="43" fill="#446ab3" />
                    </g>
                  </svg>
                </svg>
                <svg widget-name="newToTheAppLabel" eObject-URI="login.page#/0/@children.2/@children.1" x="5" y="91" width="404" height="83">
                  <svg template-id="content-box" width="404" height="83">
                    <g template-id="content">
                      <text text-anchor="middle" alignment-baseline="central" font-size="16" font-family="SFProRounded-Semibold" font-style="normal" text-decoration="none" template-id="node-text" x="202" y="41.5" fill="#ffffff">New to this App?</text>
                    </g>
                  </svg>
                </svg>
                <svg widget-name="createAccountButton" eObject-URI="login.page#/0/@children.2/@children.2" x="5" y="174" width="404" height="83">
                  <svg template-id="content-box" x="20" width="364" height="83">
                    <g template-id="content">
                      <text text-anchor="middle" alignment-baseline="central" font-size="18" font-family="SFProRounded-Bold" font-style="normal" text-decoration="none" template-id="node-text" x="182" y="41.5" fill="#ffffff">Create a new Account</text>
                    </g>
                  </svg>
                </svg>
                <svg widget-name="agreementText" eObject-URI="login.page#/0/@children.2/@children.3" x="5" y="257" width="404" height="83">
                  <svg template-id="content-box" x="20" width="364" height="83">
                    <g template-id="content">
                      <svg viewBox="0 0 305 34" template-id="content-background" xmlns="http://www.w3.org/2000/svg" x="29.5" y="24.5" width="305" height="34" fill="none">
                        <path d="M 0.90625 11 H 4.0166 C 6.11523 11 7.35938 9.96777 7.35938 8.23145 C 7.35938 6.91895 6.49805 5.97559 5.1582 5.80469 V 5.75 C 6.1084 5.5791 6.86035 4.62207 6.86035 3.59668 C 6.86035 2.12012 5.71875 1.13574 4.03027 1.13574 H 0.90625 C 0.530273 1.13574 0.291016 1.38184 0.291016 1.77148 V 10.3643 C 0.291016 10.7539 0.530273 11 0.90625 11 z M 1.52148 5.3877 V 2.22266 H 3.75 C 4.94629 2.22266 5.61621 2.7627 5.61621 3.74023 C 5.61621 4.80664 4.82324 5.3877 3.36719 5.3877 H 1.52148 z M 1.52148 9.91309 V 6.44727 H 3.71582 C 5.28809 6.44727 6.09473 7.02832 6.09473 8.16992 C 6.09473 9.31152 5.31543 9.91309 3.83203 9.91309 H 1.52148 z M 9.2666 13.6592 C 10.4424 13.6592 11.0234 13.1328 11.6387 11.499 L 14.2637 4.62891 C 14.3047 4.5127 14.3252 4.40332 14.3252 4.31445 C 14.3252 3.99316 14.0859 3.76758 13.7441 3.76758 C 13.4502 3.76758 13.293 3.89062 13.1836 4.20508 L 11.2148 9.81055 H 11.1943 L 9.23242 4.20508 C 9.12305 3.89062 8.94531 3.76758 8.66504 3.76758 C 8.32324 3.76758 8.07031 3.98633 8.07031 4.31445 C 8.07031 4.40332 8.09082 4.5127 8.13184 4.62891 L 10.5791 11.0068 L 10.415 11.5059 C 10.1348 12.3672 9.7041 12.6406 9.25293 12.6406 C 9.06836 12.6406 9.02051 12.6338 8.84961 12.6338 C 8.54883 12.6338 8.37109 12.8115 8.37109 13.0713 C 8.37109 13.4473 8.69238 13.6592 9.2666 13.6592 z M 20.7168 11.123 C 22.4053 11.123 23.5469 10.2686 23.5469 8.99707 C 23.5469 7.95117 23 7.43164 21.5166 7.06934 L 20.457 6.80957 C 19.6777 6.61816 19.2949 6.27637 19.2949 5.78418 C 19.2949 5.17578 19.8896 4.74512 20.7441 4.74512 C 21.4688 4.74512 21.9268 5.00488 22.2344 5.59961 C 22.3643 5.8457 22.5283 5.9209 22.7607 5.9209 C 23.0479 5.9209 23.2256 5.73633 23.2256 5.45605 C 23.2256 5.40137 23.2188 5.34668 23.2051 5.27832 C 23.0205 4.42383 21.9814 3.76758 20.8125 3.76758 C 19.2061 3.76758 18.1191 4.6084 18.1191 5.8457 C 18.1191 6.84375 18.7822 7.49316 20.1562 7.83496 L 21.2432 8.1084 C 22.043 8.30664 22.3369 8.58008 22.3369 9.09277 C 22.3369 9.75586 21.7217 10.1523 20.8125 10.1523 C 19.9033 10.1523 19.4795 9.87207 19.124 9.25 C 18.9873 9.00391 18.8164 8.89453 18.6045 8.89453 C 18.2969 8.89453 18.0645 9.07227 18.0645 9.38672 C 18.0645 9.47559 18.0781 9.56445 18.1191 9.66699 C 18.4609 10.5557 19.4521 11.123 20.7168 11.123 z M 25.4268 2.69434 C 25.8369 2.69434 26.1719 2.35938 26.1719 1.95605 C 26.1719 1.5459 25.8369 1.21777 25.4268 1.21777 C 25.0234 1.21777 24.6885 1.5459 24.6885 1.95605 C 24.6885 2.35938 25.0234 2.69434 25.4268 2.69434 z M 25.4268 11.123 C 25.7754 11.123 26.0215 10.8633 26.0215 10.4873 V 4.40332 C 26.0215 4.02734 25.7754 3.76758 25.4268 3.76758 C 25.0781 3.76758 24.832 4.02734 24.832 4.40332 V 10.4873 C 24.832 10.8633 25.0781 11.123 25.4268 11.123 z M 30.499 13.6797 C 32.5225 13.7002 33.7803 12.5518 33.7803 10.8564 V 4.38281 C 33.7803 4.01367 33.5273 3.76758 33.1855 3.76758 C 32.8438 3.76758 32.5908 4.01367 32.5908 4.38281 V 5.05957 H 32.5703 C 32.0986 4.25977 31.3125 3.76758 30.3076 3.76758 C 28.4688 3.76758 27.2793 5.18945 27.2793 7.41797 C 27.2793 9.62598 28.4688 11.0547 30.2803 11.0547 C 31.2783 11.0547 32.126 10.5488 32.5635 9.77637 H 32.5908 V 10.8975 C 32.5908 11.957 31.8184 12.6885 30.5469 12.668 C 29.8223 12.6543 29.3232 12.3945 28.7148 11.7246 C 28.5303 11.5195 28.4141 11.4512 28.2158 11.4512 C 27.9014 11.4512 27.6826 11.6631 27.6826 11.9639 C 27.6826 12.1211 27.7236 12.2578 27.8193 12.4082 C 28.3184 13.1943 29.3096 13.666 30.499 13.6797 z M 30.5195 10.0088 C 29.2959 10.0088 28.4961 9.01074 28.4961 7.41797 C 28.4961 5.8252 29.2959 4.81348 30.5195 4.81348 C 31.7568 4.81348 32.5908 5.85254 32.5908 7.41797 C 32.5908 8.9834 31.7568 10.0088 30.5195 10.0088 z M 35.9199 11.123 C 36.2686 11.123 36.5146 10.8633 36.5146 10.4873 V 6.81641 C 36.5146 5.61328 37.2461 4.82031 38.3672 4.82031 C 39.4609 4.82031 40.001 5.44922 40.001 6.59766 V 10.4873 C 40.001 10.8633 40.2471 11.123 40.5957 11.123 C 40.9443 11.123 41.1904 10.8633 41.1904 10.4873 V 6.38574 C 41.1904 4.77246 40.2881 3.76758 38.7295 3.76758 C 37.6289 3.76758 36.8701 4.25977 36.4736 5.02539 H 36.4463 V 4.36914 C 36.4463 4.01367 36.2139 3.76758 35.8857 3.76758 C 35.5576 3.76758 35.3252 4.01367 35.3252 4.36914 V 10.4873 C 35.3252 10.8633 35.5713 11.123 35.9199 11.123 z M 43.3643 2.69434 C 43.7744 2.69434 44.1094 2.35938 44.1094 1.95605 C 44.1094 1.5459 43.7744 1.21777 43.3643 1.21777 C 42.9609 1.21777 42.626 1.5459 42.626 1.95605 C 42.626 2.35938 42.9609 2.69434 43.3643 2.69434 z M 43.3643 11.123 C 43.7129 11.123 43.959 10.8633 43.959 10.4873 V 4.40332 C 43.959 4.02734 43.7129 3.76758 43.3643 3.76758 C 43.0156 3.76758 42.7695 4.02734 42.7695 4.40332 V 10.4873 C 42.7695 10.8633 43.0156 11.123 43.3643 11.123 z M 46.1602 11.123 C 46.5088 11.123 46.7549 10.8633 46.7549 10.4873 V 6.81641 C 46.7549 5.61328 47.4863 4.82031 48.6074 4.82031 C 49.7012 4.82031 50.2412 5.44922 50.2412 6.59766 V 10.4873 C 50.2412 10.8633 50.4873 11.123 50.8359 11.123 C 51.1846 11.123 51.4307 10.8633 51.4307 10.4873 V 6.38574 C 51.4307 4.77246 50.5283 3.76758 48.9697 3.76758 C 47.8691 3.76758 47.1104 4.25977 46.7139 5.02539 H 46.6865 V 4.36914 C 46.6865 4.01367 46.4541 3.76758 46.126 3.76758 C 45.7979 3.76758 45.5654 4.01367 45.5654 4.36914 V 10.4873 C 45.5654 10.8633 45.8115 11.123 46.1602 11.123 z M 55.8193 13.6797 C 57.8428 13.7002 59.1006 12.5518 59.1006 10.8564 V 4.38281 C 59.1006 4.01367 58.8477 3.76758 58.5059 3.76758 C 58.1641 3.76758 57.9111 4.01367 57.9111 4.38281 V 5.05957 H 57.8906 C 57.4189 4.25977 56.6328 3.76758 55.6279 3.76758 C 53.7891 3.76758 52.5996 5.18945 52.5996 7.41797 C 52.5996 9.62598 53.7891 11.0547 55.6006 11.0547 C 56.5986 11.0547 57.4463 10.5488 57.8838 9.77637 H 57.9111 V 10.8975 C 57.9111 11.957 57.1387 12.6885 55.8672 12.668 C 55.1426 12.6543 54.6436 12.3945 54.0352 11.7246 C 53.8506 11.5195 53.7344 11.4512 53.5361 11.4512 C 53.2217 11.4512 53.0029 11.6631 53.0029 11.9639 C 53.0029 12.1211 53.0439 12.2578 53.1396 12.4082 C 53.6387 13.1943 54.6299 13.666 55.8193 13.6797 z M 55.8398 10.0088 C 54.6162 10.0088 53.8164 9.01074 53.8164 7.41797 C 53.8164 5.8252 54.6162 4.81348 55.8398 4.81348 C 57.0771 4.81348 57.9111 5.85254 57.9111 7.41797 C 57.9111 8.9834 57.0771 10.0088 55.8398 10.0088 z M 65.9434 11.123 C 67.0371 11.123 67.7754 10.665 68.1992 9.84473 H 68.2266 V 10.5215 C 68.2266 10.8633 68.4521 11.123 68.7939 11.123 C 69.1357 11.123 69.3545 10.8633 69.3545 10.5215 V 4.40332 C 69.3545 4.02734 69.1084 3.76758 68.7598 3.76758 C 68.4111 3.76758 68.165 4.02734 68.165 4.40332 V 8.06738 C 68.165 9.27734 67.4678 10.0703 66.3125 10.0703 C 65.2119 10.0703 64.6719 9.44824 64.6719 8.29297 V 4.40332 C 64.6719 4.02734 64.4258 3.76758 64.0771 3.76758 C 63.7285 3.76758 63.4824 4.02734 63.4824 4.40332 V 8.50488 C 63.4824 10.1182 64.3916 11.123 65.9434 11.123 z M 71.4941 13.5088 C 71.8428 13.5088 72.0889 13.249 72.0889 12.873 V 9.84473 H 72.1162 C 72.54 10.624 73.3604 11.123 74.3789 11.123 C 76.1699 11.123 77.3936 9.67383 77.3936 7.44531 C 77.3936 5.2168 76.1631 3.76758 74.3516 3.76758 C 73.3193 3.76758 72.4922 4.29395 72.0547 5.09375 H 72.0273 V 4.36914 C 72.0273 4.01367 71.7949 3.76758 71.4668 3.76758 C 71.1318 3.76758 70.8994 4.01367 70.8994 4.36914 V 12.873 C 70.8994 13.249 71.1455 13.5088 71.4941 13.5088 z M 74.1191 10.0771 C 72.9023 10.0771 72.082 9.03125 72.082 7.44531 C 72.082 5.86621 72.9023 4.81348 74.1191 4.81348 C 75.3838 4.81348 76.1768 5.83887 76.1768 7.44531 C 76.1768 9.05859 75.3838 10.0771 74.1191 10.0771 z M 79.1709 9.41406 C 78.8496 9.41406 78.6582 9.55762 78.583 9.93359 L 78.0977 12.4697 C 78.0908 12.5107 78.0771 12.5791 78.0771 12.6816 C 78.0771 12.9551 78.2891 13.1123 78.5625 13.1123 C 78.8496 13.1123 79.0068 12.9756 79.082 12.6816 L 79.7109 10.3301 C 79.752 10.1797 79.7656 10.0771 79.7656 9.9541 C 79.7656 9.61914 79.5195 9.41406 79.1709 9.41406 z M 84.626 13.6592 C 85.8018 13.6592 86.3828 13.1328 86.998 11.499 L 89.623 4.62891 C 89.6641 4.5127 89.6846 4.40332 89.6846 4.31445 C 89.6846 3.99316 89.4453 3.76758 89.1035 3.76758 C 88.8096 3.76758 88.6523 3.89062 88.543 4.20508 L 86.5742 9.81055 H 86.5537 L 84.5918 4.20508 C 84.4824 3.89062 84.3047 3.76758 84.0244 3.76758 C 83.6826 3.76758 83.4297 3.98633 83.4297 4.31445 C 83.4297 4.40332 83.4502 4.5127 83.4912 4.62891 L 85.9385 11.0068 L 85.7744 11.5059 C 85.4941 12.3672 85.0635 12.6406 84.6123 12.6406 C 84.4277 12.6406 84.3799 12.6338 84.209 12.6338 C 83.9082 12.6338 83.7305 12.8115 83.7305 13.0713 C 83.7305 13.4473 84.0518 13.6592 84.626 13.6592 z M 93.4785 11.123 C 95.4404 11.123 96.7666 9.70801 96.7666 7.44531 C 96.7666 5.17578 95.4404 3.76758 93.4785 3.76758 C 91.5098 3.76758 90.1836 5.17578 90.1836 7.44531 C 90.1836 9.70801 91.5098 11.123 93.4785 11.123 z M 93.4785 10.0771 C 92.2207 10.0771 91.3936 9.12012 91.3936 7.44531 C 91.3936 5.77051 92.2207 4.81348 93.4785 4.81348 C 94.7363 4.81348 95.5566 5.77051 95.5566 7.44531 C 95.5566 9.12012 94.7363 10.0771 93.4785 10.0771 z M 100.396 11.123 C 101.49 11.123 102.229 10.665 102.652 9.84473 H 102.68 V 10.5215 C 102.68 10.8633 102.905 11.123 103.247 11.123 C 103.589 11.123 103.808 10.8633 103.808 10.5215 V 4.40332 C 103.808 4.02734 103.562 3.76758 103.213 3.76758 C 102.864 3.76758 102.618 4.02734 102.618 4.40332 V 8.06738 C 102.618 9.27734 101.921 10.0703 100.766 10.0703 C 99.665 10.0703 99.125 9.44824 99.125 8.29297 V 4.40332 C 99.125 4.02734 98.8789 3.76758 98.5303 3.76758 C 98.1816 3.76758 97.9355 4.02734 97.9355 4.40332 V 8.50488 C 97.9355 10.1182 98.8447 11.123 100.396 11.123 z M 110.295 11.123 C 111.252 11.123 112.161 10.5898 112.585 9.77637 H 112.612 V 10.5215 C 112.612 10.877 112.845 11.123 113.18 11.123 C 113.508 11.123 113.74 10.877 113.74 10.5215 V 6.08496 C 113.74 4.66992 112.688 3.76758 111.02 3.76758 C 109.864 3.76758 108.825 4.28027 108.422 5.05957 C 108.326 5.23047 108.278 5.40137 108.278 5.55176 C 108.278 5.87305 108.497 6.08496 108.805 6.08496 C 109.03 6.08496 109.188 5.99609 109.297 5.79785 C 109.693 5.09375 110.22 4.81348 110.992 4.81348 C 111.977 4.81348 112.551 5.33301 112.551 6.20117 V 6.7959 L 110.507 6.91211 C 108.866 7.00781 107.93 7.77344 107.93 8.99023 C 107.93 10.2686 108.88 11.123 110.295 11.123 z M 110.562 10.1113 C 109.707 10.1113 109.14 9.66699 109.14 8.99023 C 109.14 8.32031 109.687 7.89648 110.644 7.83496 L 112.551 7.71875 V 8.2998 C 112.551 9.3252 111.683 10.1113 110.562 10.1113 z M 118.122 13.6797 C 120.146 13.7002 121.403 12.5518 121.403 10.8564 V 4.38281 C 121.403 4.01367 121.15 3.76758 120.809 3.76758 C 120.467 3.76758 120.214 4.01367 120.214 4.38281 V 5.05957 H 120.193 C 119.722 4.25977 118.936 3.76758 117.931 3.76758 C 116.092 3.76758 114.902 5.18945 114.902 7.41797 C 114.902 9.62598 116.092 11.0547 117.903 11.0547 C 118.901 11.0547 119.749 10.5488 120.187 9.77637 H 120.214 V 10.8975 C 120.214 11.957 119.441 12.6885 118.17 12.668 C 117.445 12.6543 116.946 12.3945 116.338 11.7246 C 116.153 11.5195 116.037 11.4512 115.839 11.4512 C 115.524 11.4512 115.306 11.6631 115.306 11.9639 C 115.306 12.1211 115.347 12.2578 115.442 12.4082 C 115.941 13.1943 116.933 13.666 118.122 13.6797 z M 118.143 10.0088 C 116.919 10.0088 116.119 9.01074 116.119 7.41797 C 116.119 5.8252 116.919 4.81348 118.143 4.81348 C 119.38 4.81348 120.214 5.85254 120.214 7.41797 C 120.214 8.9834 119.38 10.0088 118.143 10.0088 z M 123.543 11.123 C 123.892 11.123 124.138 10.8633 124.138 10.4873 V 6.58398 C 124.138 5.6748 124.596 4.90234 125.669 4.90234 C 125.929 4.90234 126.113 4.85449 126.236 4.75195 C 126.359 4.65625 126.421 4.51953 126.421 4.33496 C 126.421 4.1709 126.373 4.03418 126.271 3.93848 C 126.154 3.8291 125.97 3.76758 125.71 3.76758 C 124.999 3.76758 124.302 4.31445 124.097 5.05273 H 124.069 V 4.36914 C 124.069 4.01367 123.837 3.76758 123.509 3.76758 C 123.181 3.76758 122.948 4.01367 122.948 4.36914 V 10.4873 C 122.948 10.8633 123.194 11.123 123.543 11.123 z M 129.907 11.123 C 131.206 11.123 132.204 10.5762 132.662 9.6123 C 132.717 9.48242 132.751 9.35938 132.751 9.26367 C 132.751 8.94922 132.539 8.74414 132.225 8.74414 C 132.04 8.74414 131.903 8.8125 131.78 8.9834 C 131.227 9.79004 130.707 10.0908 129.859 10.0908 C 128.588 10.0908 127.802 9.20215 127.802 7.7666 H 132.245 C 132.655 7.7666 132.901 7.50684 132.901 7.07617 C 132.901 5.12793 131.623 3.76758 129.805 3.76758 C 127.843 3.76758 126.578 5.23047 126.578 7.47266 C 126.578 9.76953 127.809 11.123 129.907 11.123 z M 127.809 6.83691 C 127.884 5.61328 128.677 4.7998 129.784 4.7998 C 130.885 4.7998 131.644 5.60645 131.671 6.83691 H 127.809 z M 137.085 11.123 C 138.384 11.123 139.382 10.5762 139.84 9.6123 C 139.895 9.48242 139.929 9.35938 139.929 9.26367 C 139.929 8.94922 139.717 8.74414 139.402 8.74414 C 139.218 8.74414 139.081 8.8125 138.958 8.9834 C 138.404 9.79004 137.885 10.0908 137.037 10.0908 C 135.766 10.0908 134.979 9.20215 134.979 7.7666 H 139.423 C 139.833 7.7666 140.079 7.50684 140.079 7.07617 C 140.079 5.12793 138.801 3.76758 136.982 3.76758 C 135.021 3.76758 133.756 5.23047 133.756 7.47266 C 133.756 9.76953 134.986 11.123 137.085 11.123 z M 134.986 6.83691 C 135.062 5.61328 135.854 4.7998 136.962 4.7998 C 138.062 4.7998 138.821 5.60645 138.849 6.83691 H 134.986 z M 146.156 11.123 C 146.532 11.123 146.792 10.9248 146.901 10.5488 L 148.371 5.49707 H 148.398 L 149.875 10.5488 C 149.991 10.9521 150.217 11.123 150.613 11.123 C 150.982 11.123 151.229 10.9316 151.338 10.5488 L 153.074 4.58789 C 153.108 4.47168 153.122 4.36914 153.122 4.28027 C 153.122 3.96582 152.896 3.76758 152.541 3.76758 C 152.247 3.76758 152.09 3.9043 152.001 4.25293 L 150.6 9.67383 H 150.572 L 149.068 4.29395 C 148.973 3.94531 148.747 3.76758 148.392 3.76758 C 148.029 3.76758 147.79 3.95215 147.694 4.30078 L 146.204 9.67383 H 146.177 L 144.775 4.25293 C 144.687 3.9043 144.529 3.76758 144.235 3.76758 C 143.88 3.76758 143.654 3.96582 143.654 4.28027 C 143.654 4.36914 143.668 4.47168 143.702 4.58789 L 145.438 10.5488 C 145.555 10.9453 145.78 11.123 146.156 11.123 z M 154.831 2.69434 C 155.241 2.69434 155.576 2.35938 155.576 1.95605 C 155.576 1.5459 155.241 1.21777 154.831 1.21777 C 154.428 1.21777 154.093 1.5459 154.093 1.95605 C 154.093 2.35938 154.428 2.69434 154.831 2.69434 z M 154.831 11.123 C 155.18 11.123 155.426 10.8633 155.426 10.4873 V 4.40332 C 155.426 4.02734 155.18 3.76758 154.831 3.76758 C 154.482 3.76758 154.236 4.02734 154.236 4.40332 V 10.4873 C 154.236 10.8633 154.482 11.123 154.831 11.123 z M 157.415 9.35938 C 157.415 10.4941 157.989 11.0547 159.138 11.0547 H 159.213 C 159.876 11.0547 160.081 10.8633 160.081 10.501 C 160.081 10.2207 159.903 10.0635 159.514 10.0361 L 159.411 10.0293 C 158.816 9.98828 158.604 9.70117 158.604 9.09961 V 4.86816 H 159.521 C 159.862 4.86816 160.054 4.69043 160.054 4.37598 C 160.054 4.06836 159.862 3.89062 159.521 3.89062 H 158.604 V 2.67383 C 158.604 2.29785 158.358 2.03809 158.01 2.03809 C 157.661 2.03809 157.415 2.29785 157.415 2.67383 V 3.89062 H 156.82 C 156.479 3.89062 156.287 4.06836 156.287 4.37598 C 156.287 4.69043 156.479 4.86816 156.82 4.86816 H 157.415 V 9.35938 z M 161.913 11.123 C 162.262 11.123 162.508 10.8633 162.508 10.4873 V 6.85742 C 162.508 5.62695 163.239 4.82031 164.422 4.82031 C 165.536 4.82031 166.104 5.49707 166.104 6.625 V 10.4873 C 166.104 10.8633 166.35 11.123 166.698 11.123 C 167.047 11.123 167.293 10.8633 167.293 10.4873 V 6.40625 C 167.293 4.82031 166.35 3.76758 164.791 3.76758 C 163.711 3.76758 162.932 4.23242 162.535 5.02539 H 162.508 V 1.63477 C 162.508 1.26562 162.275 1.0127 161.913 1.0127 C 161.558 1.0127 161.318 1.26562 161.318 1.63477 V 10.4873 C 161.318 10.8633 161.564 11.123 161.913 11.123 z M 286.348 11.123 C 287.305 11.123 288.214 10.5898 288.638 9.77637 H 288.665 V 10.5215 C 288.665 10.877 288.897 11.123 289.232 11.123 C 289.561 11.123 289.793 10.877 289.793 10.5215 V 6.08496 C 289.793 4.66992 288.74 3.76758 287.072 3.76758 C 285.917 3.76758 284.878 4.28027 284.475 5.05957 C 284.379 5.23047 284.331 5.40137 284.331 5.55176 C 284.331 5.87305 284.55 6.08496 284.857 6.08496 C 285.083 6.08496 285.24 5.99609 285.35 5.79785 C 285.746 5.09375 286.272 4.81348 287.045 4.81348 C 288.029 4.81348 288.604 5.33301 288.604 6.20117 V 6.7959 L 286.56 6.91211 C 284.919 7.00781 283.982 7.77344 283.982 8.99023 C 283.982 10.2686 284.933 11.123 286.348 11.123 z M 286.614 10.1113 C 285.76 10.1113 285.192 9.66699 285.192 8.99023 C 285.192 8.32031 285.739 7.89648 286.696 7.83496 L 288.604 7.71875 V 8.2998 C 288.604 9.3252 287.735 10.1113 286.614 10.1113 z M 291.898 11.123 C 292.247 11.123 292.493 10.8633 292.493 10.4873 V 6.81641 C 292.493 5.61328 293.225 4.82031 294.346 4.82031 C 295.439 4.82031 295.979 5.44922 295.979 6.59766 V 10.4873 C 295.979 10.8633 296.226 11.123 296.574 11.123 C 296.923 11.123 297.169 10.8633 297.169 10.4873 V 6.38574 C 297.169 4.77246 296.267 3.76758 294.708 3.76758 C 293.607 3.76758 292.849 4.25977 292.452 5.02539 H 292.425 V 4.36914 C 292.425 4.01367 292.192 3.76758 291.864 3.76758 C 291.536 3.76758 291.304 4.01367 291.304 4.36914 V 10.4873 C 291.304 10.8633 291.55 11.123 291.898 11.123 z M 301.38 11.123 C 302.494 11.123 303.232 10.5762 303.622 9.72852 H 303.643 V 10.542 C 303.643 10.8906 303.916 11.123 304.251 11.123 C 304.593 11.123 304.832 10.8838 304.832 10.542 V 1.64844 C 304.832 1.27246 304.586 1.0127 304.237 1.0127 C 303.889 1.0127 303.643 1.27246 303.643 1.64844 V 5.0459 H 303.615 C 303.191 4.2666 302.371 3.76758 301.353 3.76758 C 299.562 3.76758 298.338 5.2168 298.338 7.44531 C 298.338 9.67383 299.568 11.123 301.38 11.123 z M 301.605 10.0771 C 300.348 10.0771 299.555 9.05859 299.555 7.44531 C 299.555 5.83887 300.348 4.81348 301.605 4.81348 C 302.829 4.81348 303.649 5.85938 303.649 7.44531 C 303.649 9.03809 302.829 10.0771 301.605 10.0771 z M 100.697 31.123 C 102.659 31.123 103.985 29.708 103.985 27.4453 C 103.985 25.1758 102.659 23.7676 100.697 23.7676 C 98.7285 23.7676 97.4023 25.1758 97.4023 27.4453 C 97.4023 29.708 98.7285 31.123 100.697 31.123 z M 100.697 30.0771 C 99.4395 30.0771 98.6123 29.1201 98.6123 27.4453 C 98.6123 25.7705 99.4395 24.8135 100.697 24.8135 C 101.955 24.8135 102.775 25.7705 102.775 27.4453 C 102.775 29.1201 101.955 30.0771 100.697 30.0771 z M 107.615 31.123 C 108.709 31.123 109.447 30.665 109.871 29.8447 H 109.898 V 30.5215 C 109.898 30.8633 110.124 31.123 110.466 31.123 C 110.808 31.123 111.026 30.8633 111.026 30.5215 V 24.4033 C 111.026 24.0273 110.78 23.7676 110.432 23.7676 C 110.083 23.7676 109.837 24.0273 109.837 24.4033 V 28.0674 C 109.837 29.2773 109.14 30.0703 107.984 30.0703 C 106.884 30.0703 106.344 29.4482 106.344 28.293 V 24.4033 C 106.344 24.0273 106.098 23.7676 105.749 23.7676 C 105.4 23.7676 105.154 24.0273 105.154 24.4033 V 28.5049 C 105.154 30.1182 106.063 31.123 107.615 31.123 z M 113.166 31.123 C 113.515 31.123 113.761 30.8633 113.761 30.4873 V 26.584 C 113.761 25.6748 114.219 24.9023 115.292 24.9023 C 115.552 24.9023 115.736 24.8545 115.859 24.752 C 115.982 24.6562 116.044 24.5195 116.044 24.335 C 116.044 24.1709 115.996 24.0342 115.894 23.9385 C 115.777 23.8291 115.593 23.7676 115.333 23.7676 C 114.622 23.7676 113.925 24.3145 113.72 25.0527 H 113.692 V 24.3691 C 113.692 24.0137 113.46 23.7676 113.132 23.7676 C 112.804 23.7676 112.571 24.0137 112.571 24.3691 V 30.4873 C 112.571 30.8633 112.817 31.123 113.166 31.123 z M 206.244 31.0684 C 206.682 31.0684 207.023 30.7266 207.023 30.2891 C 207.023 29.8516 206.682 29.5098 206.244 29.5098 C 205.807 29.5098 205.465 29.8516 205.465 30.2891 C 205.465 30.7266 205.807 31.0684 206.244 31.0684 z" fill="#ffffff" />
                        <path d="M 176.043 11.1641 C 177.889 11.1641 179.29 10.3574 179.919 9.01758 C 180.028 8.78516 180.083 8.58008 180.083 8.35449 C 180.083 7.88965 179.748 7.56836 179.263 7.56836 C 178.88 7.56836 178.654 7.73242 178.477 8.13574 C 178.025 9.1748 177.157 9.66699 176.029 9.66699 C 174.32 9.66699 173.24 8.2793 173.24 6.06445 C 173.24 3.86328 174.327 2.46875 176.022 2.46875 C 177.096 2.46875 177.991 3.02246 178.449 4.08203 C 178.641 4.5127 178.907 4.7041 179.311 4.7041 C 179.782 4.7041 180.09 4.40332 180.09 3.93164 C 180.09 3.72656 180.035 3.49414 179.926 3.26855 C 179.276 1.82617 177.834 0.97168 176.009 0.97168 C 173.22 0.97168 171.436 2.91992 171.436 6.06445 C 171.436 9.22949 173.192 11.1641 176.043 11.1641 z M 184.649 11.1436 C 186.775 11.1436 188.156 9.72852 188.156 7.37695 C 188.156 5.03223 186.762 3.60352 184.649 3.60352 C 182.537 3.60352 181.143 5.03906 181.143 7.37695 C 181.143 9.72852 182.523 11.1436 184.649 11.1436 z M 184.649 9.79688 C 183.569 9.79688 182.872 8.92188 182.872 7.37695 C 182.872 5.83887 183.576 4.95703 184.649 4.95703 C 185.729 4.95703 186.427 5.83887 186.427 7.37695 C 186.427 8.92188 185.729 9.79688 184.649 9.79688 z M 190.098 11.1367 C 190.597 11.1367 190.952 10.8154 190.952 10.2412 V 6.80273 C 190.952 5.76367 191.574 5.05957 192.552 5.05957 C 193.522 5.05957 194.001 5.63379 194.001 6.65918 V 10.2412 C 194.001 10.8154 194.356 11.1367 194.855 11.1367 C 195.354 11.1367 195.703 10.8154 195.703 10.2412 V 6.31738 C 195.703 4.64258 194.794 3.61719 193.194 3.61719 C 192.08 3.61719 191.328 4.11621 190.938 4.97754 H 190.904 V 4.47168 C 190.904 3.94531 190.562 3.61035 190.063 3.61035 C 189.558 3.61035 189.25 3.94531 189.25 4.47168 V 10.2412 C 189.25 10.8154 189.599 11.1367 190.098 11.1367 z M 199.777 11.1162 C 200.898 11.1162 201.678 10.5488 202.026 9.71484 H 202.061 V 10.2822 C 202.061 10.8359 202.43 11.1367 202.922 11.1367 C 203.414 11.1367 203.763 10.8291 203.763 10.2822 V 1.89453 C 203.763 1.32031 203.407 0.999023 202.908 0.999023 C 202.409 0.999023 202.061 1.32031 202.061 1.89453 V 4.9707 H 202.02 C 201.637 4.1709 200.816 3.63086 199.777 3.63086 C 197.952 3.63086 196.77 5.08008 196.77 7.37012 C 196.77 9.67383 197.952 11.1162 199.777 11.1162 z M 200.29 9.72168 C 199.189 9.72168 198.513 8.81934 198.513 7.37695 C 198.513 5.94141 199.196 5.03223 200.29 5.03223 C 201.363 5.03223 202.067 5.95508 202.067 7.37695 C 202.067 8.8125 201.363 9.72168 200.29 9.72168 z M 206.08 2.73535 C 206.613 2.73535 207.03 2.3252 207.03 1.8125 C 207.03 1.29297 206.613 0.889648 206.08 0.889648 C 205.554 0.889648 205.137 1.29297 205.137 1.8125 C 205.137 2.3252 205.554 2.73535 206.08 2.73535 z M 206.08 11.1367 C 206.6 11.1367 206.935 10.7949 206.935 10.2412 V 4.5127 C 206.935 3.95898 206.6 3.61035 206.08 3.61035 C 205.561 3.61035 205.232 3.95898 205.232 4.50586 V 10.2412 C 205.232 10.7949 205.561 11.1367 206.08 11.1367 z M 208.835 9.20898 C 208.835 10.4463 209.478 11.0752 210.742 11.0752 H 210.811 C 211.59 11.0752 212.027 10.8086 212.027 10.3096 C 212.027 9.91309 211.795 9.72168 211.344 9.68066 L 211.221 9.66699 C 210.729 9.62598 210.537 9.38672 210.537 8.83984 V 5.06641 H 211.323 C 211.747 5.06641 212.007 4.81348 212.007 4.40332 C 212.007 4 211.747 3.75391 211.323 3.75391 H 210.537 V 2.79004 C 210.537 2.24316 210.209 1.90137 209.689 1.90137 C 209.163 1.90137 208.835 2.24316 208.835 2.79004 V 3.75391 H 208.377 C 207.953 3.75391 207.693 4 207.693 4.40332 C 207.693 4.81348 207.953 5.06641 208.377 5.06641 H 208.835 V 9.20898 z M 213.955 2.73535 C 214.488 2.73535 214.905 2.3252 214.905 1.8125 C 214.905 1.29297 214.488 0.889648 213.955 0.889648 C 213.429 0.889648 213.012 1.29297 213.012 1.8125 C 213.012 2.3252 213.429 2.73535 213.955 2.73535 z M 213.955 11.1367 C 214.475 11.1367 214.81 10.7949 214.81 10.2412 V 4.5127 C 214.81 3.95898 214.475 3.61035 213.955 3.61035 C 213.436 3.61035 213.107 3.95898 213.107 4.50586 V 10.2412 C 213.107 10.7949 213.436 11.1367 213.955 11.1367 z M 219.444 11.1436 C 221.57 11.1436 222.951 9.72852 222.951 7.37695 C 222.951 5.03223 221.557 3.60352 219.444 3.60352 C 217.332 3.60352 215.938 5.03906 215.938 7.37695 C 215.938 9.72852 217.318 11.1436 219.444 11.1436 z M 219.444 9.79688 C 218.364 9.79688 217.667 8.92188 217.667 7.37695 C 217.667 5.83887 218.371 4.95703 219.444 4.95703 C 220.524 4.95703 221.222 5.83887 221.222 7.37695 C 221.222 8.92188 220.524 9.79688 219.444 9.79688 z M 224.893 11.1367 C 225.392 11.1367 225.747 10.8154 225.747 10.2412 V 6.80273 C 225.747 5.76367 226.369 5.05957 227.347 5.05957 C 228.317 5.05957 228.796 5.63379 228.796 6.65918 V 10.2412 C 228.796 10.8154 229.151 11.1367 229.65 11.1367 C 230.149 11.1367 230.498 10.8154 230.498 10.2412 V 6.31738 C 230.498 4.64258 229.589 3.61719 227.989 3.61719 C 226.875 3.61719 226.123 4.11621 225.733 4.97754 H 225.699 V 4.47168 C 225.699 3.94531 225.357 3.61035 224.858 3.61035 C 224.353 3.61035 224.045 3.94531 224.045 4.47168 V 10.2412 C 224.045 10.8154 224.394 11.1367 224.893 11.1367 z M 234.661 11.1436 C 236.507 11.1436 237.751 10.2344 237.751 8.84668 C 237.751 7.77344 237.143 7.21973 235.611 6.87109 L 234.456 6.61816 C 233.704 6.44727 233.39 6.16016 233.39 5.73633 C 233.39 5.2168 233.902 4.85449 234.647 4.85449 C 235.365 4.85449 235.782 5.16895 236.117 5.66797 C 236.274 5.89355 236.521 5.98242 236.767 5.98242 C 237.197 5.98242 237.423 5.72949 237.423 5.37402 C 237.423 5.29199 237.409 5.20996 237.389 5.12109 C 237.163 4.28711 236.083 3.60352 234.688 3.60352 C 232.897 3.60352 231.735 4.48535 231.735 5.83203 C 231.735 6.88477 232.433 7.58203 233.848 7.90332 L 235.023 8.16992 C 235.769 8.34082 236.042 8.58008 236.042 9.01758 C 236.042 9.56445 235.516 9.89941 234.723 9.89941 C 233.909 9.89941 233.472 9.65332 233.089 9.09961 C 232.87 8.8125 232.631 8.68262 232.351 8.68262 C 231.94 8.68262 231.64 8.94238 231.64 9.35254 C 231.64 9.45508 231.66 9.56445 231.708 9.6875 C 232.057 10.5557 233.13 11.1436 234.661 11.1436 z M 244.833 11.1436 C 246.959 11.1436 248.34 9.72852 248.34 7.37695 C 248.34 5.03223 246.945 3.60352 244.833 3.60352 C 242.721 3.60352 241.326 5.03906 241.326 7.37695 C 241.326 9.72852 242.707 11.1436 244.833 11.1436 z M 244.833 9.79688 C 243.753 9.79688 243.056 8.92188 243.056 7.37695 C 243.056 5.83887 243.76 4.95703 244.833 4.95703 C 245.913 4.95703 246.61 5.83887 246.61 7.37695 C 246.61 8.92188 245.913 9.79688 244.833 9.79688 z M 250.76 11.1367 C 251.266 11.1367 251.607 10.8223 251.607 10.248 V 5.06641 H 252.496 C 252.872 5.06641 253.146 4.83398 253.146 4.41699 C 253.146 4.02051 252.872 3.77441 252.496 3.77441 H 251.58 V 3.20703 C 251.58 2.59863 251.833 2.3252 252.455 2.31152 C 252.605 2.30469 252.722 2.29102 252.831 2.26367 C 253.084 2.18848 253.207 2.03125 253.207 1.77148 C 253.207 1.34766 252.804 1.06055 251.901 1.06055 C 250.596 1.06738 249.905 1.7168 249.905 3.13184 V 3.77441 H 249.454 C 249.071 3.77441 248.798 4.02051 248.798 4.41699 C 248.798 4.83398 249.071 5.06641 249.454 5.06641 H 249.905 V 10.248 C 249.905 10.8223 250.247 11.1367 250.76 11.1367 z M 261.178 11.1641 C 263.68 11.1641 265.231 9.67383 265.231 7.52051 V 1.93555 C 265.231 1.35449 264.903 1.01953 264.356 1.01953 C 263.803 1.01953 263.475 1.35449 263.475 1.93555 V 7.36328 C 263.475 8.70996 262.641 9.62598 261.178 9.62598 C 259.715 9.62598 258.888 8.70996 258.888 7.36328 V 1.93555 C 258.888 1.35449 258.56 1.01953 258.006 1.01953 C 257.459 1.01953 257.124 1.35449 257.124 1.93555 V 7.52051 C 257.124 9.67383 258.683 11.1641 261.178 11.1641 z M 269.606 11.1436 C 271.452 11.1436 272.696 10.2344 272.696 8.84668 C 272.696 7.77344 272.088 7.21973 270.557 6.87109 L 269.401 6.61816 C 268.649 6.44727 268.335 6.16016 268.335 5.73633 C 268.335 5.2168 268.848 4.85449 269.593 4.85449 C 270.311 4.85449 270.728 5.16895 271.062 5.66797 C 271.22 5.89355 271.466 5.98242 271.712 5.98242 C 272.143 5.98242 272.368 5.72949 272.368 5.37402 C 272.368 5.29199 272.354 5.20996 272.334 5.12109 C 272.108 4.28711 271.028 3.60352 269.634 3.60352 C 267.843 3.60352 266.681 4.48535 266.681 5.83203 C 266.681 6.88477 267.378 7.58203 268.793 7.90332 L 269.969 8.16992 C 270.714 8.34082 270.987 8.58008 270.987 9.01758 C 270.987 9.56445 270.461 9.89941 269.668 9.89941 C 268.854 9.89941 268.417 9.65332 268.034 9.09961 C 267.815 8.8125 267.576 8.68262 267.296 8.68262 C 266.886 8.68262 266.585 8.94238 266.585 9.35254 C 266.585 9.45508 266.605 9.56445 266.653 9.6875 C 267.002 10.5557 268.075 11.1436 269.606 11.1436 z M 276.989 11.1436 C 278.37 11.1436 279.45 10.6035 279.929 9.68066 C 280.004 9.53027 280.045 9.37988 280.045 9.25 C 280.045 8.83984 279.744 8.59375 279.361 8.59375 C 279.122 8.59375 278.965 8.66895 278.787 8.86719 C 278.24 9.56445 277.741 9.83105 276.976 9.83105 C 275.868 9.83105 275.164 9.05176 275.164 7.8418 V 7.78711 H 279.437 C 279.942 7.78711 280.229 7.48633 280.229 6.98047 C 280.229 5.01172 278.876 3.60352 276.894 3.60352 C 274.802 3.60352 273.469 5.09375 273.469 7.4043 C 273.469 9.75586 274.774 11.1436 276.989 11.1436 z M 275.178 6.66602 C 275.246 5.62695 275.943 4.92285 276.9 4.92285 C 277.857 4.92285 278.527 5.61328 278.562 6.66602 H 275.178 z M 120.74 31.1162 C 121.294 31.1162 121.622 30.7812 121.622 30.2002 V 27.7393 H 123.618 C 125.614 27.7393 127.016 26.4062 127.016 24.4375 C 127.016 22.4688 125.655 21.1357 123.693 21.1357 H 120.74 C 120.193 21.1357 119.858 21.4775 119.858 22.0518 V 30.2002 C 119.858 30.7812 120.193 31.1162 120.74 31.1162 z M 121.622 26.3174 V 22.5781 H 123.229 C 124.493 22.5781 125.225 23.2549 125.225 24.4375 C 125.225 25.6338 124.486 26.3174 123.222 26.3174 H 121.622 z M 128.984 31.1367 C 129.497 31.1367 129.839 30.8018 129.839 30.2412 V 26.7549 C 129.839 25.873 130.208 25.2646 131.179 25.2578 C 131.514 25.251 131.767 25.1758 131.931 25.0322 C 132.102 24.8955 132.184 24.6973 132.184 24.4307 C 132.184 24.1504 132.102 23.9453 131.944 23.8154 C 131.814 23.6992 131.609 23.6309 131.343 23.6309 C 130.618 23.6309 129.989 24.1777 129.791 25.0254 H 129.757 V 24.4717 C 129.757 23.9385 129.422 23.6104 128.95 23.6104 C 128.465 23.6104 128.137 23.9385 128.137 24.4717 V 30.2412 C 128.137 30.8018 128.472 31.1367 128.984 31.1367 z M 133.838 22.7354 C 134.371 22.7354 134.788 22.3252 134.788 21.8125 C 134.788 21.293 134.371 20.8896 133.838 20.8896 C 133.312 20.8896 132.895 21.293 132.895 21.8125 C 132.895 22.3252 133.312 22.7354 133.838 22.7354 z M 133.838 31.1367 C 134.357 31.1367 134.692 30.7949 134.692 30.2412 V 24.5127 C 134.692 23.959 134.357 23.6104 133.838 23.6104 C 133.318 23.6104 132.99 23.959 132.99 24.5059 V 30.2412 C 132.99 30.7949 133.318 31.1367 133.838 31.1367 z M 139.02 31.1367 C 139.621 31.1367 139.983 30.8633 140.195 30.2686 L 142.232 24.8408 C 142.287 24.6973 142.321 24.5332 142.321 24.376 C 142.321 23.9385 141.973 23.6104 141.494 23.6104 C 141.098 23.6104 140.824 23.8223 140.694 24.2734 L 139.04 29.4209 H 139.006 L 137.352 24.2871 C 137.222 23.8291 136.948 23.6104 136.545 23.6104 C 136.053 23.6104 135.69 23.918 135.69 24.3828 C 135.69 24.5469 135.731 24.7178 135.786 24.8682 L 137.823 30.2686 C 138.049 30.8838 138.391 31.1367 139.02 31.1367 z M 145.247 31.1162 C 146.184 31.1162 147.093 30.6309 147.51 29.8447 H 147.544 V 30.3506 C 147.571 30.8564 147.893 31.1367 148.357 31.1367 C 148.836 31.1367 149.185 30.8291 149.185 30.2822 V 26.0098 C 149.185 24.5537 148.016 23.6035 146.218 23.6035 C 144.83 23.6035 143.709 24.1367 143.34 24.9775 C 143.265 25.1348 143.224 25.2852 143.224 25.4424 C 143.224 25.8525 143.524 26.126 143.941 26.126 C 144.229 26.126 144.454 26.0166 144.632 25.7842 C 145.056 25.1621 145.486 24.9365 146.149 24.9365 C 146.99 24.9365 147.503 25.374 147.503 26.1328 V 26.6523 L 145.582 26.7617 C 143.818 26.8711 142.827 27.6436 142.827 28.9287 C 142.827 30.2344 143.846 31.1162 145.247 31.1162 z M 145.767 29.8311 C 145.028 29.8311 144.529 29.4551 144.529 28.8604 C 144.529 28.2861 145.001 27.917 145.821 27.8623 L 147.503 27.7598 V 28.3135 C 147.503 29.1885 146.724 29.8311 145.767 29.8311 z M 153.744 31.1436 C 155.111 31.1436 156.314 30.4395 156.718 29.4482 C 156.786 29.2842 156.82 29.1406 156.82 29.0107 C 156.82 28.5869 156.506 28.3135 156.103 28.3135 C 155.733 28.3135 155.549 28.457 155.316 28.8398 C 154.988 29.4209 154.523 29.7695 153.771 29.7695 C 152.691 29.7695 151.987 28.8809 151.987 27.377 C 151.987 25.8936 152.685 24.9844 153.778 24.9844 C 154.482 24.9844 154.961 25.2988 155.323 25.9619 C 155.521 26.3037 155.727 26.4473 156.068 26.4473 C 156.479 26.4473 156.8 26.1875 156.8 25.7637 C 156.8 25.6406 156.766 25.4971 156.711 25.3535 C 156.362 24.335 155.152 23.6035 153.73 23.6035 C 151.618 23.6035 150.258 25.0732 150.258 27.3838 C 150.258 29.708 151.625 31.1436 153.744 31.1436 z M 159.008 33.6934 C 160.457 33.6934 161.209 33.0645 161.865 31.2598 L 164.251 24.875 C 164.312 24.7109 164.347 24.5195 164.347 24.3828 C 164.347 23.9316 164.005 23.6104 163.52 23.6104 C 163.089 23.6104 162.843 23.8086 162.699 24.2734 L 160.97 29.5508 H 160.942 L 159.213 24.2803 C 159.069 23.8018 158.83 23.6104 158.399 23.6104 C 157.9 23.6104 157.524 23.9385 157.524 24.4033 C 157.524 24.54 157.559 24.7178 157.62 24.8887 L 159.992 31.1299 L 159.869 31.4854 C 159.616 32.1211 159.22 32.3193 158.837 32.3193 C 158.68 32.3193 158.611 32.3125 158.468 32.3125 C 158.071 32.3125 157.825 32.5381 157.825 32.8867 C 157.825 33.4062 158.242 33.6934 159.008 33.6934 z M 169.139 31.1162 C 169.692 31.1162 170.021 30.7812 170.021 30.2002 V 27.7393 H 172.017 C 174.013 27.7393 175.414 26.4062 175.414 24.4375 C 175.414 22.4688 174.054 21.1357 172.092 21.1357 H 169.139 C 168.592 21.1357 168.257 21.4775 168.257 22.0518 V 30.2002 C 168.257 30.7812 168.592 31.1162 169.139 31.1162 z M 170.021 26.3174 V 22.5781 H 171.627 C 172.892 22.5781 173.623 23.2549 173.623 24.4375 C 173.623 25.6338 172.885 26.3174 171.62 26.3174 H 170.021 z M 179.468 31.1436 C 181.594 31.1436 182.975 29.7285 182.975 27.377 C 182.975 25.0322 181.58 23.6035 179.468 23.6035 C 177.355 23.6035 175.961 25.0391 175.961 27.377 C 175.961 29.7285 177.342 31.1436 179.468 31.1436 z M 179.468 29.7969 C 178.388 29.7969 177.69 28.9219 177.69 27.377 C 177.69 25.8389 178.395 24.957 179.468 24.957 C 180.548 24.957 181.245 25.8389 181.245 27.377 C 181.245 28.9219 180.548 29.7969 179.468 29.7969 z M 184.971 31.1367 C 185.47 31.1367 185.818 30.8154 185.818 30.2412 V 21.8945 C 185.818 21.3203 185.47 20.999 184.971 20.999 C 184.472 20.999 184.116 21.3203 184.116 21.8945 V 30.2412 C 184.116 30.8154 184.472 31.1367 184.971 31.1367 z M 188.156 22.7354 C 188.689 22.7354 189.106 22.3252 189.106 21.8125 C 189.106 21.293 188.689 20.8896 188.156 20.8896 C 187.63 20.8896 187.213 21.293 187.213 21.8125 C 187.213 22.3252 187.63 22.7354 188.156 22.7354 z M 188.156 31.1367 C 188.676 31.1367 189.011 30.7949 189.011 30.2412 V 24.5127 C 189.011 23.959 188.676 23.6104 188.156 23.6104 C 187.637 23.6104 187.309 23.959 187.309 24.5059 V 30.2412 C 187.309 30.7949 187.637 31.1367 188.156 31.1367 z M 193.625 31.1436 C 194.992 31.1436 196.195 30.4395 196.599 29.4482 C 196.667 29.2842 196.701 29.1406 196.701 29.0107 C 196.701 28.5869 196.387 28.3135 195.983 28.3135 C 195.614 28.3135 195.43 28.457 195.197 28.8398 C 194.869 29.4209 194.404 29.7695 193.652 29.7695 C 192.572 29.7695 191.868 28.8809 191.868 27.377 C 191.868 25.8936 192.565 24.9844 193.659 24.9844 C 194.363 24.9844 194.842 25.2988 195.204 25.9619 C 195.402 26.3037 195.607 26.4473 195.949 26.4473 C 196.359 26.4473 196.681 26.1875 196.681 25.7637 C 196.681 25.6406 196.646 25.4971 196.592 25.3535 C 196.243 24.335 195.033 23.6035 193.611 23.6035 C 191.499 23.6035 190.139 25.0732 190.139 27.3838 C 190.139 29.708 191.506 31.1436 193.625 31.1436 z M 198.889 33.6934 C 200.338 33.6934 201.09 33.0645 201.746 31.2598 L 204.132 24.875 C 204.193 24.7109 204.228 24.5195 204.228 24.3828 C 204.228 23.9316 203.886 23.6104 203.4 23.6104 C 202.97 23.6104 202.724 23.8086 202.58 24.2734 L 200.851 29.5508 H 200.823 L 199.094 24.2803 C 198.95 23.8018 198.711 23.6104 198.28 23.6104 C 197.781 23.6104 197.405 23.9385 197.405 24.4033 C 197.405 24.54 197.439 24.7178 197.501 24.8887 L 199.873 31.1299 L 199.75 31.4854 C 199.497 32.1211 199.101 32.3193 198.718 32.3193 C 198.561 32.3193 198.492 32.3125 198.349 32.3125 C 197.952 32.3125 197.706 32.5381 197.706 32.8867 C 197.706 33.4062 198.123 33.6934 198.889 33.6934 z" fill="#ff3399" />
                        <path d="M 170.902 13.5498 H 280.626 V 14.6777 H 170.902 V 13.5498 z M 118.99 33.5498 H 204.46 V 34.6777 H 118.99 V 33.5498 z" fill="#ff3399" />
                      </svg>
                      <text text-anchor="middle" alignment-baseline="central" font-size="17" font-family="ArialMT" font-style="normal" text-decoration="none" template-id="node-text" x="182" y="41.5" fill="#446ab3" />
                    </g>
                  </svg>
                </svg>
              </g>
            </g>
          </svg>
        </svg>
      </g>
    </g>
  </svg>
</svg>
